<mxfile host="app.diagrams.net" agent="Mozilla/5.0 (Windows NT 10.0; Win64; x64) AppleWebKit/537.36 (KHTML, like Gecko) Chrome/128.0.0.0 Safari/537.36" version="24.7.7">
  <diagram name="Page-1" id="Cwjois-MFgWvlFlG_cYi">
    <mxGraphModel dx="3862" dy="2947" grid="1" gridSize="10" guides="1" tooltips="1" connect="1" arrows="1" fold="1" page="0" pageScale="1" pageWidth="850" pageHeight="1100" math="0" shadow="0">
      <root>
        <mxCell id="0" />
        <mxCell id="1" parent="0" />
        <mxCell id="JH_FMjcKpoApM49fk6Y6-88" value="" style="edgeStyle=none;rounded=0;orthogonalLoop=1;jettySize=auto;html=1;exitX=1;exitY=0.5;exitDx=0;exitDy=0;elbow=vertical;endArrow=none;endFill=0;dashed=1;fillColor=#f5f5f5;strokeColor=#666666;dashPattern=1 4;strokeWidth=1;" edge="1" parent="1">
          <mxGeometry relative="1" as="geometry">
            <mxPoint x="-1431" y="-2010" as="targetPoint" />
            <mxPoint x="-2430" y="-2010" as="sourcePoint" />
          </mxGeometry>
        </mxCell>
        <mxCell id="JH_FMjcKpoApM49fk6Y6-40" style="edgeStyle=none;rounded=0;orthogonalLoop=1;jettySize=auto;html=1;exitX=1;exitY=0.5;exitDx=0;exitDy=0;elbow=vertical;endArrow=none;endFill=0;dashed=1;fillColor=#f5f5f5;strokeColor=#666666;dashPattern=1 4;strokeWidth=1;" edge="1" parent="1">
          <mxGeometry relative="1" as="geometry">
            <mxPoint x="-1430" y="-1850" as="targetPoint" />
            <mxPoint x="-2430" y="-1850" as="sourcePoint" />
          </mxGeometry>
        </mxCell>
        <mxCell id="JH_FMjcKpoApM49fk6Y6-41" style="edgeStyle=none;rounded=0;orthogonalLoop=1;jettySize=auto;html=1;exitX=1;exitY=0.5;exitDx=0;exitDy=0;elbow=vertical;endArrow=none;endFill=0;dashed=1;fillColor=#f5f5f5;strokeColor=#666666;dashPattern=1 4;strokeWidth=1;" edge="1" parent="1">
          <mxGeometry relative="1" as="geometry">
            <mxPoint x="-1430" y="-1930" as="targetPoint" />
            <mxPoint x="-2430" y="-1930" as="sourcePoint" />
          </mxGeometry>
        </mxCell>
        <mxCell id="JH_FMjcKpoApM49fk6Y6-44" style="edgeStyle=none;rounded=0;orthogonalLoop=1;jettySize=auto;html=1;exitX=1;exitY=0.5;exitDx=0;exitDy=0;elbow=vertical;endArrow=none;endFill=0;dashed=1;fillColor=#f5f5f5;strokeColor=#666666;dashPattern=1 4;strokeWidth=1;" edge="1" parent="1">
          <mxGeometry relative="1" as="geometry">
            <mxPoint x="-1430" y="-2170" as="targetPoint" />
            <mxPoint x="-2430" y="-2170" as="sourcePoint" />
          </mxGeometry>
        </mxCell>
        <mxCell id="JH_FMjcKpoApM49fk6Y6-45" value="Development" style="rounded=1;whiteSpace=wrap;html=1;fillColor=#e1d5e7;strokeColor=#9673a6;fontSize=14;" vertex="1" parent="1">
          <mxGeometry x="-2550" y="-1950" width="120" height="40" as="geometry" />
        </mxCell>
        <mxCell id="JH_FMjcKpoApM49fk6Y6-46" value="Feature" style="rounded=1;whiteSpace=wrap;html=1;fillColor=#fff2cc;strokeColor=#d6b656;fontSize=14;" vertex="1" parent="1">
          <mxGeometry x="-2550" y="-1870" width="120" height="40" as="geometry" />
        </mxCell>
        <mxCell id="JH_FMjcKpoApM49fk6Y6-47" value="Testing" style="rounded=1;whiteSpace=wrap;html=1;fillColor=#ffe6cc;strokeColor=#d79b00;fontSize=14;" vertex="1" parent="1">
          <mxGeometry x="-2550" y="-2030" width="120" height="40" as="geometry" />
        </mxCell>
        <mxCell id="JH_FMjcKpoApM49fk6Y6-48" value="" style="ellipse;whiteSpace=wrap;html=1;aspect=fixed;fillColor=#fff2cc;strokeColor=#d6b656;strokeWidth=2;" vertex="1" parent="1">
          <mxGeometry x="-1870" y="-1869.75" width="40" height="40" as="geometry" />
        </mxCell>
        <mxCell id="JH_FMjcKpoApM49fk6Y6-49" style="edgeStyle=orthogonalEdgeStyle;curved=1;rounded=0;orthogonalLoop=1;jettySize=auto;html=1;exitX=0;exitY=0.5;exitDx=0;exitDy=0;entryX=0;entryY=0;entryDx=0;entryDy=0;endArrow=none;endFill=0;strokeWidth=3;fillColor=#fff2cc;strokeColor=#d6b656;" edge="1" parent="1">
          <mxGeometry relative="1" as="geometry">
            <mxPoint x="-1670" y="-1970" as="targetPoint" />
            <mxPoint x="-1630" y="-2010" as="sourcePoint" />
          </mxGeometry>
        </mxCell>
        <mxCell id="JH_FMjcKpoApM49fk6Y6-50" style="edgeStyle=orthogonalEdgeStyle;curved=1;rounded=0;orthogonalLoop=1;jettySize=auto;html=1;exitX=1;exitY=0.5;exitDx=0;exitDy=0;entryX=1;entryY=1;entryDx=0;entryDy=0;endArrow=none;endFill=0;strokeWidth=3;fillColor=#fff2cc;strokeColor=#d6b656;" edge="1" parent="1">
          <mxGeometry relative="1" as="geometry">
            <mxPoint x="-1710" y="-1770" as="sourcePoint" />
            <mxPoint x="-1670" y="-1810" as="targetPoint" />
          </mxGeometry>
        </mxCell>
        <mxCell id="JH_FMjcKpoApM49fk6Y6-51" value="" style="ellipse;whiteSpace=wrap;html=1;aspect=fixed;fillColor=#ffe6cc;strokeColor=#d79b00;strokeWidth=2;" vertex="1" parent="1">
          <mxGeometry x="-1630" y="-2030" width="40" height="40" as="geometry" />
        </mxCell>
        <mxCell id="JH_FMjcKpoApM49fk6Y6-52" style="edgeStyle=orthogonalEdgeStyle;curved=1;rounded=0;orthogonalLoop=1;jettySize=auto;html=1;endArrow=none;endFill=0;strokeWidth=3;fillColor=#fff2cc;strokeColor=#d6b656;" edge="1" parent="1">
          <mxGeometry relative="1" as="geometry">
            <mxPoint x="-1670" y="-1810" as="targetPoint" />
            <mxPoint x="-1670" y="-1970" as="sourcePoint" />
          </mxGeometry>
        </mxCell>
        <mxCell id="JH_FMjcKpoApM49fk6Y6-53" value="" style="ellipse;whiteSpace=wrap;html=1;aspect=fixed;fillColor=#ffe6cc;strokeColor=#d79b00;strokeWidth=2;" vertex="1" parent="1">
          <mxGeometry x="-1510" y="-2030" width="40" height="40" as="geometry" />
        </mxCell>
        <mxCell id="JH_FMjcKpoApM49fk6Y6-54" style="edgeStyle=orthogonalEdgeStyle;rounded=0;orthogonalLoop=1;jettySize=auto;html=1;exitX=1;exitY=0.5;exitDx=0;exitDy=0;entryX=0.5;entryY=0;entryDx=0;entryDy=0;curved=1;endArrow=none;endFill=0;strokeWidth=3;fillColor=#fff2cc;strokeColor=#d6b656;" edge="1" parent="1">
          <mxGeometry relative="1" as="geometry">
            <mxPoint x="-1910" y="-1889.9899999999998" as="targetPoint" />
            <mxPoint x="-1950" y="-1929.9899999999998" as="sourcePoint" />
          </mxGeometry>
        </mxCell>
        <mxCell id="JH_FMjcKpoApM49fk6Y6-55" style="edgeStyle=orthogonalEdgeStyle;curved=1;rounded=0;orthogonalLoop=1;jettySize=auto;html=1;exitX=0;exitY=0.5;exitDx=0;exitDy=0;entryX=0.5;entryY=1;entryDx=0;entryDy=0;endArrow=none;endFill=0;strokeWidth=3;fillColor=#fff2cc;strokeColor=#d6b656;" edge="1" parent="1">
          <mxGeometry relative="1" as="geometry">
            <mxPoint x="-1910" y="-1889.75" as="targetPoint" />
            <mxPoint x="-1870" y="-1849.75" as="sourcePoint" />
          </mxGeometry>
        </mxCell>
        <mxCell id="JH_FMjcKpoApM49fk6Y6-56" value="Staging" style="rounded=1;whiteSpace=wrap;html=1;fillColor=#dae8fc;strokeColor=#6c8ebf;fontSize=14;" vertex="1" parent="1">
          <mxGeometry x="-2550" y="-2110" width="120" height="40" as="geometry" />
        </mxCell>
        <mxCell id="JH_FMjcKpoApM49fk6Y6-57" value="Production" style="rounded=1;whiteSpace=wrap;html=1;fillColor=#d5e8d4;strokeColor=#82b366;fontSize=14;" vertex="1" parent="1">
          <mxGeometry x="-2550" y="-2190" width="120" height="40" as="geometry" />
        </mxCell>
        <mxCell id="JH_FMjcKpoApM49fk6Y6-58" value="" style="ellipse;whiteSpace=wrap;html=1;aspect=fixed;fillColor=#e1d5e7;strokeColor=#9673a6;strokeWidth=2;" vertex="1" parent="1">
          <mxGeometry x="-1990" y="-1949.75" width="40" height="40" as="geometry" />
        </mxCell>
        <mxCell id="JH_FMjcKpoApM49fk6Y6-59" style="edgeStyle=orthogonalEdgeStyle;rounded=0;orthogonalLoop=1;jettySize=auto;html=1;exitX=1;exitY=0.5;exitDx=0;exitDy=0;entryX=0.5;entryY=0;entryDx=0;entryDy=0;curved=1;endArrow=none;endFill=0;strokeWidth=3;fillColor=#e1d5e7;strokeColor=#9673a6;" edge="1" parent="1">
          <mxGeometry relative="1" as="geometry">
            <mxPoint x="-2030" y="-2130" as="targetPoint" />
            <mxPoint x="-2070" y="-2170" as="sourcePoint" />
          </mxGeometry>
        </mxCell>
        <mxCell id="JH_FMjcKpoApM49fk6Y6-60" style="edgeStyle=orthogonalEdgeStyle;curved=1;rounded=0;orthogonalLoop=1;jettySize=auto;html=1;exitX=0;exitY=0.5;exitDx=0;exitDy=0;entryX=0.5;entryY=1;entryDx=0;entryDy=0;endArrow=none;endFill=0;strokeWidth=3;fillColor=#e1d5e7;strokeColor=#9673a6;" edge="1" parent="1">
          <mxGeometry relative="1" as="geometry">
            <mxPoint x="-2030" y="-1970" as="targetPoint" />
            <mxPoint x="-1990" y="-1930" as="sourcePoint" />
          </mxGeometry>
        </mxCell>
        <mxCell id="JH_FMjcKpoApM49fk6Y6-61" style="edgeStyle=orthogonalEdgeStyle;curved=1;rounded=0;orthogonalLoop=1;jettySize=auto;html=1;endArrow=none;endFill=0;strokeWidth=3;fillColor=#e1d5e7;strokeColor=#9673a6;" edge="1" parent="1">
          <mxGeometry relative="1" as="geometry">
            <mxPoint x="-2030" y="-1970" as="targetPoint" />
            <mxPoint x="-2030" y="-2130" as="sourcePoint" />
          </mxGeometry>
        </mxCell>
        <mxCell id="JH_FMjcKpoApM49fk6Y6-62" style="edgeStyle=orthogonalEdgeStyle;curved=1;rounded=0;orthogonalLoop=1;jettySize=auto;html=1;exitX=0;exitY=0.5;exitDx=0;exitDy=0;entryX=0.5;entryY=1;entryDx=0;entryDy=0;endArrow=none;endFill=0;strokeWidth=3;fillColor=#e1d5e7;strokeColor=#9673a6;" edge="1" parent="1">
          <mxGeometry relative="1" as="geometry">
            <mxPoint x="-1550" y="-2050" as="targetPoint" />
            <mxPoint x="-1510" y="-2010" as="sourcePoint" />
          </mxGeometry>
        </mxCell>
        <mxCell id="JH_FMjcKpoApM49fk6Y6-63" style="edgeStyle=orthogonalEdgeStyle;curved=1;rounded=0;orthogonalLoop=1;jettySize=auto;html=1;exitX=0;exitY=0.5;exitDx=0;exitDy=0;entryX=0;entryY=0;entryDx=0;entryDy=0;endArrow=none;endFill=0;strokeWidth=3;fillColor=#e1d5e7;strokeColor=#9673a6;" edge="1" parent="1">
          <mxGeometry relative="1" as="geometry">
            <mxPoint x="-1910" y="-2049.99" as="targetPoint" />
            <mxPoint x="-1870" y="-2089.99" as="sourcePoint" />
          </mxGeometry>
        </mxCell>
        <mxCell id="JH_FMjcKpoApM49fk6Y6-64" style="edgeStyle=orthogonalEdgeStyle;curved=1;rounded=0;orthogonalLoop=1;jettySize=auto;html=1;exitX=1;exitY=0.5;exitDx=0;exitDy=0;entryX=1;entryY=1;entryDx=0;entryDy=0;endArrow=none;endFill=0;strokeWidth=3;fillColor=#e1d5e7;strokeColor=#9673a6;" edge="1" parent="1">
          <mxGeometry relative="1" as="geometry">
            <mxPoint x="-1950" y="-1929.9899999999998" as="sourcePoint" />
            <mxPoint x="-1910" y="-1969.9899999999998" as="targetPoint" />
          </mxGeometry>
        </mxCell>
        <mxCell id="JH_FMjcKpoApM49fk6Y6-65" style="edgeStyle=orthogonalEdgeStyle;curved=1;rounded=0;orthogonalLoop=1;jettySize=auto;html=1;endArrow=none;endFill=0;strokeWidth=3;fillColor=#e1d5e7;strokeColor=#9673a6;" edge="1" parent="1">
          <mxGeometry relative="1" as="geometry">
            <mxPoint x="-1910" y="-1969.9899999999998" as="targetPoint" />
            <mxPoint x="-1910" y="-2049.99" as="sourcePoint" />
          </mxGeometry>
        </mxCell>
        <mxCell id="JH_FMjcKpoApM49fk6Y6-66" style="edgeStyle=none;rounded=0;orthogonalLoop=1;jettySize=auto;html=1;exitX=1;exitY=0.5;exitDx=0;exitDy=0;elbow=vertical;strokeWidth=3;endArrow=none;endFill=0;fillColor=#e1d5e7;strokeColor=#9673a6;" edge="1" parent="1">
          <mxGeometry relative="1" as="geometry">
            <mxPoint x="-1590" y="-2090" as="targetPoint" />
            <mxPoint x="-1870" y="-2089.87" as="sourcePoint" />
          </mxGeometry>
        </mxCell>
        <mxCell id="JH_FMjcKpoApM49fk6Y6-67" style="edgeStyle=orthogonalEdgeStyle;rounded=0;orthogonalLoop=1;jettySize=auto;html=1;exitX=1;exitY=0.5;exitDx=0;exitDy=0;entryX=0.5;entryY=0;entryDx=0;entryDy=0;curved=1;endArrow=none;endFill=0;strokeWidth=3;fillColor=#e1d5e7;strokeColor=#9673a6;" edge="1" parent="1">
          <mxGeometry relative="1" as="geometry">
            <mxPoint x="-1550" y="-2050" as="targetPoint" />
            <mxPoint x="-1590" y="-2090" as="sourcePoint" />
          </mxGeometry>
        </mxCell>
        <mxCell id="JH_FMjcKpoApM49fk6Y6-68" style="edgeStyle=orthogonalEdgeStyle;curved=1;rounded=0;orthogonalLoop=1;jettySize=auto;html=1;exitX=0;exitY=0.5;exitDx=0;exitDy=0;entryX=0;entryY=0;entryDx=0;entryDy=0;endArrow=none;endFill=0;fillColor=#ffe6cc;strokeColor=#d79b00;strokeWidth=3;" edge="1" parent="1">
          <mxGeometry relative="1" as="geometry">
            <mxPoint x="-2270" y="-2050" as="targetPoint" />
            <mxPoint x="-2230" y="-2090" as="sourcePoint" />
          </mxGeometry>
        </mxCell>
        <mxCell id="JH_FMjcKpoApM49fk6Y6-71" style="edgeStyle=orthogonalEdgeStyle;curved=1;rounded=0;orthogonalLoop=1;jettySize=auto;html=1;exitX=1;exitY=0.5;exitDx=0;exitDy=0;entryX=1;entryY=1;entryDx=0;entryDy=0;endArrow=none;endFill=0;fillColor=#ffe6cc;strokeColor=#d79b00;strokeWidth=3;" edge="1" parent="1">
          <mxGeometry relative="1" as="geometry">
            <mxPoint x="-2310" y="-2010" as="sourcePoint" />
            <mxPoint x="-2270" y="-2050" as="targetPoint" />
          </mxGeometry>
        </mxCell>
        <mxCell id="JH_FMjcKpoApM49fk6Y6-72" value="" style="ellipse;whiteSpace=wrap;html=1;aspect=fixed;fillColor=#d5e8d4;strokeColor=#82b366;strokeWidth=2;" vertex="1" parent="1">
          <mxGeometry x="-2110" y="-2190" width="40" height="40" as="geometry" />
        </mxCell>
        <mxCell id="JH_FMjcKpoApM49fk6Y6-73" style="edgeStyle=orthogonalEdgeStyle;curved=1;rounded=0;orthogonalLoop=1;jettySize=auto;html=1;exitX=0;exitY=0.5;exitDx=0;exitDy=0;entryX=0;entryY=0;entryDx=0;entryDy=0;endArrow=none;endFill=0;fillColor=#dae8fc;strokeColor=#6c8ebf;strokeWidth=3;" edge="1" parent="1">
          <mxGeometry relative="1" as="geometry">
            <mxPoint x="-2150" y="-2130" as="targetPoint" />
            <mxPoint x="-2110" y="-2170" as="sourcePoint" />
          </mxGeometry>
        </mxCell>
        <mxCell id="JH_FMjcKpoApM49fk6Y6-74" style="edgeStyle=orthogonalEdgeStyle;curved=1;rounded=0;orthogonalLoop=1;jettySize=auto;html=1;exitX=1;exitY=0.5;exitDx=0;exitDy=0;entryX=1;entryY=1;entryDx=0;entryDy=0;endArrow=none;endFill=0;fillColor=#dae8fc;strokeColor=#6c8ebf;strokeWidth=3;" edge="1" parent="1">
          <mxGeometry relative="1" as="geometry">
            <mxPoint x="-2190" y="-2090" as="sourcePoint" />
            <mxPoint x="-2150" y="-2130" as="targetPoint" />
          </mxGeometry>
        </mxCell>
        <mxCell id="JH_FMjcKpoApM49fk6Y6-75" value="Feature" style="rounded=1;whiteSpace=wrap;html=1;fillColor=#fff2cc;strokeColor=#d6b656;fontSize=14;" vertex="1" parent="1">
          <mxGeometry x="-2550" y="-1790" width="120" height="40" as="geometry" />
        </mxCell>
        <mxCell id="JH_FMjcKpoApM49fk6Y6-76" value="Feature" style="rounded=1;whiteSpace=wrap;html=1;fillColor=#fff2cc;strokeColor=#d6b656;fontSize=14;" vertex="1" parent="1">
          <mxGeometry x="-2550" y="-1710" width="120" height="40" as="geometry" />
        </mxCell>
        <mxCell id="JH_FMjcKpoApM49fk6Y6-77" style="edgeStyle=none;rounded=0;orthogonalLoop=1;jettySize=auto;html=1;exitX=1;exitY=0.5;exitDx=0;exitDy=0;elbow=vertical;endArrow=none;endFill=0;dashed=1;fillColor=#f5f5f5;strokeColor=#666666;dashPattern=1 4;strokeWidth=1;" edge="1" parent="1">
          <mxGeometry relative="1" as="geometry">
            <mxPoint x="-1430" y="-1690" as="targetPoint" />
            <mxPoint x="-2430" y="-1690" as="sourcePoint" />
          </mxGeometry>
        </mxCell>
        <mxCell id="JH_FMjcKpoApM49fk6Y6-78" style="edgeStyle=none;rounded=0;orthogonalLoop=1;jettySize=auto;html=1;exitX=1;exitY=0.5;exitDx=0;exitDy=0;elbow=vertical;endArrow=none;endFill=0;dashed=1;fillColor=#f5f5f5;strokeColor=#666666;dashPattern=1 4;strokeWidth=1;" edge="1" parent="1">
          <mxGeometry relative="1" as="geometry">
            <mxPoint x="-1430" y="-1770" as="targetPoint" />
            <mxPoint x="-2430" y="-1770" as="sourcePoint" />
          </mxGeometry>
        </mxCell>
        <mxCell id="JH_FMjcKpoApM49fk6Y6-79" value="" style="ellipse;whiteSpace=wrap;html=1;aspect=fixed;fillColor=#fff2cc;strokeColor=#d6b656;strokeWidth=2;" vertex="1" parent="1">
          <mxGeometry x="-1750" y="-1790" width="40" height="40" as="geometry" />
        </mxCell>
        <mxCell id="JH_FMjcKpoApM49fk6Y6-80" style="edgeStyle=orthogonalEdgeStyle;rounded=0;orthogonalLoop=1;jettySize=auto;html=1;exitX=1;exitY=0.5;exitDx=0;exitDy=0;strokeWidth=3;fillColor=#fff2cc;strokeColor=#d6b656;endArrow=none;endFill=0;" edge="1" parent="1">
          <mxGeometry relative="1" as="geometry">
            <mxPoint x="-1750" y="-1770" as="targetPoint" />
            <mxPoint x="-1830" y="-1770" as="sourcePoint" />
          </mxGeometry>
        </mxCell>
        <mxCell id="JH_FMjcKpoApM49fk6Y6-81" value="" style="ellipse;whiteSpace=wrap;html=1;aspect=fixed;fillColor=#fff2cc;strokeColor=#d6b656;strokeWidth=2;" vertex="1" parent="1">
          <mxGeometry x="-1870" y="-1790" width="40" height="40" as="geometry" />
        </mxCell>
        <mxCell id="JH_FMjcKpoApM49fk6Y6-82" value="" style="ellipse;whiteSpace=wrap;html=1;aspect=fixed;fillColor=#fff2cc;strokeColor=#d6b656;strokeWidth=2;" vertex="1" parent="1">
          <mxGeometry x="-1870" y="-1710" width="40" height="40" as="geometry" />
        </mxCell>
        <mxCell id="JH_FMjcKpoApM49fk6Y6-83" style="edgeStyle=orthogonalEdgeStyle;curved=1;rounded=0;orthogonalLoop=1;jettySize=auto;html=1;exitX=0;exitY=0.5;exitDx=0;exitDy=0;entryX=0.5;entryY=1;entryDx=0;entryDy=0;endArrow=none;endFill=0;strokeWidth=3;fillColor=#fff2cc;strokeColor=#d6b656;" edge="1" parent="1">
          <mxGeometry relative="1" as="geometry">
            <mxPoint x="-1910" y="-1810" as="targetPoint" />
            <mxPoint x="-1870" y="-1770" as="sourcePoint" />
          </mxGeometry>
        </mxCell>
        <mxCell id="JH_FMjcKpoApM49fk6Y6-84" style="edgeStyle=orthogonalEdgeStyle;curved=1;rounded=0;orthogonalLoop=1;jettySize=auto;html=1;endArrow=none;endFill=0;strokeWidth=3;fillColor=#fff2cc;strokeColor=#d6b656;" edge="1" parent="1">
          <mxGeometry relative="1" as="geometry">
            <mxPoint x="-1910" y="-1809.75" as="targetPoint" />
            <mxPoint x="-1910" y="-1889.75" as="sourcePoint" />
          </mxGeometry>
        </mxCell>
        <mxCell id="JH_FMjcKpoApM49fk6Y6-85" style="edgeStyle=orthogonalEdgeStyle;curved=1;rounded=0;orthogonalLoop=1;jettySize=auto;html=1;exitX=0;exitY=0.5;exitDx=0;exitDy=0;entryX=0.5;entryY=1;entryDx=0;entryDy=0;endArrow=none;endFill=0;strokeWidth=3;fillColor=#fff2cc;strokeColor=#d6b656;" edge="1" parent="1">
          <mxGeometry relative="1" as="geometry">
            <mxPoint x="-1910" y="-1730" as="targetPoint" />
            <mxPoint x="-1870" y="-1690" as="sourcePoint" />
          </mxGeometry>
        </mxCell>
        <mxCell id="JH_FMjcKpoApM49fk6Y6-86" style="edgeStyle=orthogonalEdgeStyle;curved=1;rounded=0;orthogonalLoop=1;jettySize=auto;html=1;endArrow=none;endFill=0;strokeWidth=3;fillColor=#fff2cc;strokeColor=#d6b656;" edge="1" parent="1">
          <mxGeometry relative="1" as="geometry">
            <mxPoint x="-1910" y="-1730" as="targetPoint" />
            <mxPoint x="-1910" y="-1810" as="sourcePoint" />
          </mxGeometry>
        </mxCell>
        <mxCell id="JH_FMjcKpoApM49fk6Y6-87" value="" style="edgeStyle=none;rounded=0;orthogonalLoop=1;jettySize=auto;html=1;exitX=1;exitY=0.5;exitDx=0;exitDy=0;elbow=vertical;endArrow=none;endFill=0;dashed=1;fillColor=#f5f5f5;strokeColor=#666666;dashPattern=1 4;strokeWidth=1;" edge="1" parent="1">
          <mxGeometry relative="1" as="geometry">
            <mxPoint x="-1431" y="-2090" as="targetPoint" />
            <mxPoint x="-2430" y="-2090" as="sourcePoint" />
          </mxGeometry>
        </mxCell>
        <mxCell id="JH_FMjcKpoApM49fk6Y6-69" value="" style="ellipse;whiteSpace=wrap;html=1;aspect=fixed;fillColor=#dae8fc;strokeColor=#6c8ebf;strokeWidth=2;" vertex="1" parent="1">
          <mxGeometry x="-2230" y="-2110" width="40" height="40" as="geometry" />
        </mxCell>
        <mxCell id="JH_FMjcKpoApM49fk6Y6-70" value="" style="ellipse;whiteSpace=wrap;html=1;aspect=fixed;fillColor=#ffe6cc;strokeColor=#d79b00;strokeWidth=2;" vertex="1" parent="1">
          <mxGeometry x="-2350" y="-2030" width="40" height="40" as="geometry" />
        </mxCell>
      </root>
    </mxGraphModel>
  </diagram>
</mxfile>
